<svg xmlns="http://www.w3.org/2000/svg" viewBox="0 0 91 91">
    <path d="M69.203 90.954c1.16 0 2.104-.943 2.104-2.105V66.335c5.709-6.025 8.842-13.879 8.842-22.215 0-2.088-.211-4.174-.604-6.207l-.004-.014c-.01-.061-.014-.123-.025-.182a2.06 2.06 0 00-.221-.594c-.002-.004-.002-.01-.002-.012-1.111-2.002-2.689-3.166-2.865-3.293a2.1 2.1 0 00-2.922.475c-.68.938-.473 2.25.459 2.938.006.004.387.309.824.797-2.381 2.465-9.92 8.479-26.879 8.479-15.66 0-24.072-6.082-26.939-8.662.342-.32.676-.57.844-.68a2.105 2.105 0 00-2.275-3.541c-.219.143-2.182 1.443-3.215 3.404l-.012.02-.004.008c-.006.01-.004.02-.008.029a2.095 2.095 0 00-.188.52 32.727 32.727 0 00-.656 6.516c0 .281.006.561.014.834l-9.473 16.41c-.375.652-.375 1.455 0 2.105s1.072 1.051 1.822 1.051h4.916v9.836c0 5.658 4.602 10.262 10.262 10.262h10.799v4.23a2.106 2.106 0 004.209 0v-4.23h5.137a2.105 2.105 0 000-4.209H22.998a6.061 6.061 0 01-6.055-6.053v-11.94a2.103 2.103 0 00-2.104-2.104h-3.373l7.949-13.771a2.09 2.09 0 00.279-1.104s-.01-2.525.027-3.125c4.336 3.369 13.301 8.402 28.188 8.402 15.385 0 23.857-4.617 27.994-7.988.025.463.035.928.035 1.393 0 7.451-2.885 14.457-8.117 19.752l-4.777 3.215a2.1 2.1 0 00-.572 2.918 2.1 2.1 0 002.92.575l1.707-1.148V88.85a2.104 2.104 0 002.104 2.104z"></path>
    <path d="M21.506 28.792c0 4.555 3.375 8.344 8.006 9.293 1.773 3.059 5.15 4.988 8.939 4.988 4.018 0 7.406-2.156 9.459-5.012 2.051 2.855 5.441 5.012 9.455 5.012 3.791 0 7.168-1.93 8.939-4.988 4.633-.947 8.008-4.738 8.01-9.293 0-4.66-3.588-8.545-8.314-9.381-.957-4.342-5.072-7.619-9.992-7.619-3.301 0-6.232 1.482-8.098 3.768-1.867-2.285-4.799-3.768-8.1-3.768-4.92.006-9.035 3.279-9.994 7.619-4.722.838-8.31 4.721-8.31 9.381zm34.502-12.791c3.305 0 5.996 2.398 5.996 5.344 0 1.525-.74 2.982-2.029 4.002a2.104 2.104 0 002.603 3.303c1.654-1.303 2.803-3.039 3.32-4.957 2.438.682 4.207 2.709 4.207 5.1-.002 2.752-2.314 5.037-5.381 5.318a8.98 8.98 0 01-.617.027 2.102 2.102 0 00-2.104 2.104c0 .195.025.387.076.568-1.119 1.268-2.854 2.055-4.715 2.055-3.004 0-5.568-2.045-6.711-4.363.705-.496 1.518-1.109 2.195-1.719.943.055 1.592.244 2.404.904a2.097 2.097 0 002.959-.306 2.101 2.101 0 00-.305-2.959 8.077 8.077 0 00-2.404-1.375 48.546 48.546 0 001.434-2.967 2.104 2.104 0 10-3.857-1.682c-.615 1.414-1.881 3.986-2.656 4.883a5.531 5.531 0 01-.41.398v-8.334c.001-2.946 2.688-5.344 5.995-5.344zm-26.09 7.691c.518 1.92 1.668 3.658 3.324 4.959a2.1 2.1 0 002.953-.354 2.1 2.1 0 00-.354-2.953c-1.287-1.016-2.027-2.475-2.027-4 0-2.943 2.691-5.342 5.998-5.344 3.305 0 5.992 2.398 5.992 5.344v8.336a5.277 5.277 0 01-.408-.398c-.773-.895-2.043-3.471-2.66-4.885a2.106 2.106 0 00-3.859 1.685c.107.244.693 1.559 1.438 2.961a8.023 8.023 0 00-2.404 1.379 2.104 2.104 0 102.658 3.261c.807-.658 1.455-.848 2.402-.902a23.035 23.035 0 002.193 1.719c-1.143 2.32-3.707 4.363-6.713 4.363-1.859 0-3.592-.785-4.713-2.055a2.105 2.105 0 00-2.027-2.672c-.209 0-.414-.014-.617-.027-3.066-.281-5.379-2.566-5.379-5.318 0-2.39 1.769-4.417 4.203-5.099zM49.449 6.368v-4.02a2.103 2.103 0 10-4.209.001v4.02a2.106 2.106 0 004.209-.001zM61.707 11.397c.805 0 1.574-.465 1.924-1.25l1.633-3.672a2.104 2.104 0 10-3.845-1.709l-1.631 3.67a2.103 2.103 0 001.919 2.961zM75.059 19.366l2.984-2.697a2.102 2.102 0 00.152-2.971 2.108 2.108 0 00-2.973-.152l-2.984 2.697a2.106 2.106 0 001.411 3.666 2.1 2.1 0 001.41-.543zM81.756 32.429l3.822-1.25a2.105 2.105 0 001.348-2.652 2.109 2.109 0 00-2.656-1.348l-3.822 1.246a2.104 2.104 0 00.654 4.105c.216 0 .437-.031.654-.101zM14.514 29.294l-3.834-1.207a2.105 2.105 0 10-1.266 4.014l3.832 1.209a2.103 2.103 0 002.641-1.377 2.106 2.106 0 00-1.373-2.639zM19.385 14.249c-.873-.77-2.203-.686-2.973.184s-.688 2.197.184 2.969l3.012 2.664c.4.354.896.527 1.395.527a2.1 2.1 0 001.576-.709 2.108 2.108 0 00-.182-2.973l-3.012-2.662zM32.717 11.776a2.102 2.102 0 001.912-2.98L32.957 5.14a2.105 2.105 0 00-3.828 1.75l1.674 3.658a2.1 2.1 0 001.914 1.228z"></path>
</svg>