 <svg xmlns="http://www.w3.org/2000/svg" viewBox="0 0 100 100">
    <path d="M37.434 25.406H92.54A2.464 2.464 0 0095 22.947a2.463 2.463 0 00-2.46-2.46H37.434a2.463 2.463 0 00-2.459 2.46 2.462 2.462 0 002.459 2.459zM11.18 28.335c.748 1.036 1.853 1.631 3.031 1.631l.127-.002c1.226-.044 2.331-.719 3.03-1.853l10.027-16.233a2.465 2.465 0 00-2.093-3.752c-.86 0-1.644.437-2.094 1.168L14.12 24.003l-4.666-6.46c-.764-1.059-2.369-1.323-3.433-.555a2.444 2.444 0 00-.989 1.602 2.44 2.44 0 00.434 1.832l5.714 7.913zM92.54 51.441H37.434a2.462 2.462 0 00-2.459 2.459 2.463 2.463 0 002.459 2.461H92.54A2.465 2.465 0 0095 53.9a2.463 2.463 0 00-2.46-2.459zM26.593 39.449a2.458 2.458 0 00-3.385.8L14.12 54.957l-4.666-6.46c-.764-1.06-2.369-1.323-3.433-.555a2.444 2.444 0 00-.989 1.602 2.44 2.44 0 00.434 1.832l5.715 7.913c.748 1.036 1.852 1.631 3.03 1.631l.126-.002c1.228-.044 2.332-.719 3.032-1.854l10.026-16.231a2.463 2.463 0 00-.802-3.384zM92.54 82.396H37.434a2.462 2.462 0 00-2.459 2.459 2.463 2.463 0 002.459 2.461H92.54A2.465 2.465 0 0095 84.855a2.463 2.463 0 00-2.46-2.459zM26.593 70.402a2.466 2.466 0 00-1.291-.367c-.86 0-1.644.438-2.094 1.168L14.12 85.911l-4.666-6.46c-.765-1.061-2.371-1.321-3.433-.555a2.442 2.442 0 00-.989 1.604 2.438 2.438 0 00.434 1.83l5.715 7.913c.748 1.036 1.852 1.631 3.03 1.631l.127-.002c1.226-.044 2.331-.72 3.03-1.851l10.027-16.234a2.464 2.464 0 00-.802-3.385z"></path>
</svg>