<svg xmlns="http://www.w3.org/2000/svg" xmlns:svg="http://www.w3.org/2000/svg" x="0" y="0" version="1.1" viewBox="0 0 100 100"><g><path fill="#000" fill-opacity="1" stroke="none" marker="none" d="m 53.532629,958.95931 c 2.04248,2.04966 3.01294,5.11192 3.54949,8.34247 0.53654,3.23056 0.5633,6.64088 0,9.4673 -0.11141,0.55815 -0.47273,1.06109 -0.96522,1.34355 l -1.89928,1.12482 c -0.092,2.2674 -0.18399,4.97824 -1.3077,6.59275 -0.65754,0.9142 -1.70677,1.41228 -2.64655,1.53101 -0.93978,0.11873 -1.82952,-0.0424 -2.67768,-0.3437 -1.15379,-0.40986 -2.24822,-1.10163 -3.14472,-2.06218 -2.36515,1.10216 -4.48372,1.45672 -7.254599,1.34349 l 0,2.40589 c 3.413149,4.34802 6.773699,9.62271 8.935979,16.21629 5.03332,-4.6039 10.00067,-7.54073 16.00382,-7.56137 8.49459,0.009 15.04865,3.54077 19.36649,8.27997 4.32328,4.7454 6.50734,10.6246 6.50734,15.7164 0,5.6204 -0.51126,10.3286 -3.05131,14.4353 -2.54006,4.1067 -6.94064,7.3236 -14.10454,10.4046 -0.31156,0.1362 -0.65823,0.1906 -0.99634,0.1563 -14.13955,-2.055 -28.39248,-2.8915 -42.624959,-3.9994 -4.60485,-0.071 -8.16967,-1.8173 -8.93598,-5.7179 l -0.93407,-6.6552 c -6.80516,-10.6287 -5.87571,-20.3437 -3.95426,-31.24518 2.18668,-10.61968 3.73759,-19.46304 6.28944,-28.87058 0.51477,-2.99843 2.45098,-4.29693 5.13746,-5.49911 8.60314,-3.36425 18.537489,-5.92143 27.306129,-5.99908 0.54286,-0.0394 1.05972,0.25412 1.40106,0.59356 z m -2.39746,3.49946 c -8.86502,0.51359 -16.851089,2.10834 -24.690709,5.56165 -1.92448,0.67412 -2.46945,1.3158 -2.89563,2.87456 -2.35265,9.42722 -4.69583,20.03333 -6.22717,28.5581 -1.378,6.87592 -1.40235,14.71052 0.12454,20.99682 0.14285,-2.863 0.94462,-5.7059 3.79857,-8.0925 -0.52693,10.113 -0.44618,13.8477 0.90294,23.3714 0.6035,1.9111 2.43385,2.6437 5.23077,2.6245 14.189759,0.6335 28.231589,2.2993 42.313599,3.9681 6.49416,-2.8472 9.9937,-5.5515 11.89389,-8.6236 1.03962,-1.6808 1.6387,-3.5766 1.99269,-5.7804 -3.41375,-0.4117 -6.98268,-0.9494 -8.18872,-2.5934 -9.65816,5.2276 -22.0412,6.0011 -26.24751,0.031 15.44337,4.843 31.8086,-2.5061 32.81717,-12.0606 -0.85897,-1.736 -1.99211,-3.4295 -3.39381,-4.968 -3.64739,-4.0033 -9.03977,-6.9677 -16.47086,-6.9677 -6.95365,-0.051 -10.9417,4.5649 -14.69611,7.7488 1.42216,10.8331 -1.59415,16.3475 -8.21986,18.2472 9.02744,-12.7048 2.61728,-26.4221 -5.542169,-36.74434 -0.27983,-0.35147 -0.43624,-0.79993 -0.43591,-1.2498 l 0,-3.78068 c -0.97531,-0.57642 -1.72945,-1.2033 -2.27291,-2.15592 -0.47763,-0.83722 -0.63201,-1.68414 -0.68499,-2.59335 -2.57914,-0.18508 -4.96232,-1.01812 -5.01287,-3.46822 8.96712,3.99939 7.97077,-3.99939 8.96712,-3.99939 0.99635,0 0.43636,4.08046 0.99635,5.03048 0.24389,0.6874 0.75245,1.29668 1.33884,1.96845 -1.22624,-0.30392 -2.10208,-0.81409 -2.27292,0.28121 0.0216,1.03928 0.47855,1.67365 1.43225,1.71849 1.63634,-0.0108 3.001839,-0.0619 4.483559,-0.28121 -0.01,-5.85049 -0.14485,-8.00829 -1.992689,-11.71696 2.759129,0 3.807329,4.30159 3.954249,11.24828 1.02537,-0.49605 2.02541,-1.13871 3.02022,-1.71834 -0.006,-5.71114 -0.0825,-7.94376 -0.99634,-12.52933 2.49864,4.17902 2.89064,7.06871 2.9579,11.37326 l 2.98904,-1.74973 c -0.20016,-5.36909 -1.08656,-8.23272 -1.96156,-12.62307 3.05546,3.83272 3.75934,7.66552 3.89198,11.49824 l 1.18316,-0.68739 c 0.3069,-2.10286 0.3486,-4.74378 -0.0623,-7.21765 -0.39553,-2.38151 -1.2013,-4.34213 -2.02383,-5.49916 z m -1.02748,19.18457 -2.02383,1.15607 c 0.50559,0.38844 1.0117,0.48893 1.61907,0.59366 -0.0329,0.004 0.28574,-0.78129 0.40476,-1.74973 z m 33.6267,37.05676 c -1.78704,2.138 -4.04187,4.003 -6.53853,5.5617 1.33423,0.4003 3.20239,0.6231 6.75648,0.3125 0.10052,-2.0577 0.11428,-3.9923 -0.21795,-5.8742 z" baseline-shift="baseline" color="#000" direction="ltr" display="inline" enable-background="accumulate" overflow="visible" transform="translate(0,-952.36218)" visibility="visible" style="text-indent:0;text-transform:none;block-progression:tb"/></g></svg>