<svg xmlns="http://www.w3.org/2000/svg" xmlns:xlink="http://www.w3.org/1999/xlink" version="1.1" x="0px" y="0px" viewBox="0 0 91 91" enable-background="new 0 0 91 91" xml:space="preserve"><g><g><path d="M69.203,90.954c1.16,0,2.104-0.943,2.104-2.105V66.335c5.709-6.025,8.842-13.879,8.842-22.215    c0-2.088-0.211-4.174-0.604-6.207c-0.002-0.006-0.002-0.01-0.004-0.014c-0.01-0.061-0.014-0.123-0.025-0.182    c-0.043-0.211-0.119-0.412-0.221-0.594c-0.002-0.004-0.002-0.01-0.002-0.012c-1.111-2.002-2.689-3.166-2.865-3.293    c-0.939-0.674-2.24-0.459-2.922,0.475c-0.68,0.938-0.473,2.25,0.459,2.938c0.006,0.004,0.387,0.309,0.824,0.797    c-2.381,2.465-9.92,8.479-26.879,8.479c-15.66,0-24.072-6.082-26.939-8.662c0.342-0.32,0.676-0.57,0.844-0.68    c0.979-0.629,1.262-1.932,0.633-2.908s-1.93-1.262-2.908-0.633c-0.219,0.143-2.182,1.443-3.215,3.404    c-0.004,0.006-0.008,0.014-0.012,0.02c-0.002,0.004-0.002,0.004-0.004,0.008c-0.006,0.01-0.004,0.02-0.008,0.029    c-0.084,0.164-0.148,0.334-0.188,0.52c-0.434,2.131-0.656,4.324-0.656,6.516c0,0.281,0.006,0.561,0.014,0.834l-9.473,16.41    c-0.375,0.652-0.375,1.455,0,2.105s1.072,1.051,1.822,1.051h4.916v9.836c0,5.658,4.602,10.262,10.262,10.262h10.799v4.23    c0,1.162,0.943,2.105,2.105,2.105s2.104-0.943,2.104-2.105v-4.23h5.137c1.162,0,2.104-0.943,2.104-2.105s-0.941-2.104-2.104-2.104    h-7.24h-1.441H22.998c-3.338,0-6.055-2.715-6.055-6.053V62.417c0-1.162-0.941-2.104-2.104-2.104h-3.373l7.949-13.771    c0.195-0.336,0.289-0.719,0.279-1.104c0,0-0.01-2.525,0.027-3.125c4.336,3.369,13.301,8.402,28.188,8.402    c15.385,0,23.857-4.617,27.994-7.988c0.025,0.463,0.035,0.928,0.035,1.393c0,7.451-2.885,14.457-8.117,19.752l-4.777,3.215    c-0.965,0.648-1.221,1.955-0.572,2.918c0.406,0.605,1.07,0.932,1.748,0.932c0.404,0,0.813-0.115,1.172-0.357l1.707-1.148v19.418    C67.1,90.011,68.039,90.954,69.203,90.954z"/><path d="M21.506,28.792c0,4.555,3.375,8.344,8.006,9.293c1.773,3.059,5.15,4.988,8.939,4.988c4.018,0,7.406-2.156,9.459-5.012    c2.051,2.855,5.441,5.012,9.455,5.012c3.791,0,7.168-1.93,8.939-4.988c4.633-0.947,8.008-4.738,8.01-9.293    c0-4.66-3.588-8.545-8.314-9.381c-0.957-4.342-5.072-7.619-9.992-7.619c-3.301,0-6.232,1.482-8.098,3.768    c-1.867-2.285-4.799-3.768-8.1-3.768c-4.92,0.006-9.035,3.279-9.994,7.619C25.094,20.249,21.506,24.132,21.506,28.792z     M56.008,16.001c3.305,0,5.996,2.398,5.996,5.344c0,1.525-0.74,2.982-2.029,4.002c-0.914,0.717-1.07,2.041-0.35,2.953    c0.717,0.912,2.043,1.068,2.953,0.35c1.654-1.303,2.803-3.039,3.32-4.957c2.438,0.682,4.207,2.709,4.207,5.1    c-0.002,2.752-2.314,5.037-5.381,5.318c-0.203,0.014-0.41,0.027-0.617,0.027c-1.164,0-2.104,0.941-2.104,2.104    c0,0.195,0.025,0.387,0.076,0.568c-1.119,1.268-2.854,2.055-4.715,2.055c-3.004,0-5.568-2.045-6.711-4.363    c0.705-0.496,1.518-1.109,2.195-1.719c0.943,0.055,1.592,0.244,2.404,0.904c0.391,0.318,0.861,0.473,1.326,0.473    c0.611,0,1.217-0.268,1.633-0.779c0.734-0.898,0.598-2.227-0.305-2.959c-0.826-0.672-1.629-1.098-2.404-1.375    c0.742-1.404,1.328-2.723,1.434-2.967c0.465-1.064-0.021-2.305-1.086-2.77c-1.068-0.467-2.307,0.021-2.771,1.088    c-0.615,1.414-1.881,3.986-2.656,4.883c-0.102,0.115-0.248,0.252-0.41,0.398v-8.334C50.014,18.399,52.701,16.001,56.008,16.001z     M29.918,23.692c0.518,1.92,1.668,3.658,3.324,4.959c0.912,0.719,2.236,0.561,2.953-0.354c0.719-0.912,0.561-2.236-0.354-2.953    c-1.287-1.016-2.027-2.475-2.027-4c0-2.943,2.691-5.342,5.998-5.344c3.305,0,5.992,2.398,5.992,5.344v8.336    c-0.162-0.146-0.309-0.285-0.408-0.398c-0.773-0.895-2.043-3.471-2.66-4.885c-0.467-1.066-1.711-1.553-2.773-1.086    c-1.066,0.469-1.551,1.707-1.086,2.771c0.107,0.244,0.693,1.559,1.438,2.961c-0.779,0.279-1.58,0.705-2.404,1.379    c-0.902,0.734-1.037,2.063-0.303,2.961c0.418,0.512,1.023,0.775,1.633,0.775c0.467,0,0.939-0.154,1.328-0.475    c0.807-0.658,1.455-0.848,2.402-0.902c0.674,0.611,1.486,1.225,2.193,1.719c-1.143,2.32-3.707,4.363-6.713,4.363    c-1.859,0-3.592-0.785-4.713-2.055c0.049-0.182,0.078-0.373,0.078-0.568c0-1.162-0.943-2.104-2.105-2.104    c-0.209,0-0.414-0.014-0.617-0.027c-3.066-0.281-5.379-2.566-5.379-5.318C25.715,26.401,27.484,24.374,29.918,23.692z"/><path d="M49.449,6.368v-4.02c0-1.162-0.941-2.104-2.104-2.104S45.24,1.187,45.24,2.349v4.02c0,1.162,0.943,2.105,2.105,2.105    S49.449,7.53,49.449,6.368z"/><path d="M61.707,11.397c0.805,0,1.574-0.465,1.924-1.25l1.633-3.672c0.473-1.061-0.006-2.303-1.068-2.777    c-1.063-0.473-2.305,0.006-2.777,1.068l-1.631,3.67c-0.475,1.063,0.004,2.305,1.066,2.779    C61.131,11.339,61.422,11.397,61.707,11.397z"/><path d="M75.059,19.366l2.984-2.697c0.863-0.779,0.932-2.107,0.152-2.971c-0.779-0.861-2.109-0.93-2.973-0.152l-2.984,2.697    c-0.861,0.777-0.932,2.109-0.152,2.973c0.416,0.459,0.988,0.693,1.563,0.693C74.152,19.909,74.656,19.729,75.059,19.366z"/><path d="M81.756,32.429l3.822-1.25c1.105-0.361,1.707-1.549,1.348-2.652c-0.361-1.104-1.549-1.707-2.656-1.348l-3.822,1.246    c-1.104,0.361-1.705,1.551-1.346,2.656c0.291,0.887,1.113,1.449,2,1.449C81.318,32.53,81.539,32.499,81.756,32.429z"/><path d="M14.514,29.294l-3.834-1.207c-1.109-0.352-2.289,0.266-2.641,1.373c-0.348,1.107,0.266,2.291,1.375,2.641l3.832,1.209    c0.211,0.064,0.424,0.096,0.633,0.096c0.895,0,1.725-0.572,2.008-1.473C16.234,30.823,15.621,29.644,14.514,29.294z"/><path d="M19.385,14.249c-0.873-0.77-2.203-0.686-2.973,0.184s-0.688,2.197,0.184,2.969l3.012,2.664    c0.4,0.354,0.896,0.527,1.395,0.527c0.582,0,1.16-0.24,1.576-0.709c0.77-0.873,0.688-2.201-0.182-2.973L19.385,14.249z"/><path d="M32.717,11.776c0.293,0,0.59-0.061,0.873-0.191c1.059-0.482,1.523-1.732,1.039-2.789L32.957,5.14    c-0.484-1.059-1.734-1.521-2.789-1.039c-1.059,0.484-1.521,1.732-1.039,2.789l1.674,3.658    C31.156,11.321,31.918,11.776,32.717,11.776z"/></g></g></svg>