<svg xmlns="http://www.w3.org/2000/svg" x="0" y="0" viewBox="0 0 909.83 1100"><title>1Asset 5</title><g data-name="Layer 2"><g data-name="Layer"><path d="M886.9,557.45a78.28,78.28,0,0,0-63.4-22.52,80.17,80.17,0,0,0-88-97.47A82.63,82.63,0,0,0,737.34,420a82,82,0,0,0-73.86-81.55l139-139A81.94,81.94,0,1,0,686.63,83.5L412.05,358.08c-18.64,18.64-41.11,31.55-65,37.35-17.91,4.35-36,4.4-50.55.28-14.38-22.37-27.88-40.68-30.8-44.6C236.09,310.7,208.81,269.57,177,220.23c-32.71-50.66-74.06-72.44-113.46-59.73C53,163.89,43,170.07,32.92,179.38,15.06,195.91-1.28,214.46.08,238.15c1,18.15,11.48,34.43,27.29,59.07,9,13.95,20.09,31.32,31.94,53,7.11,13.05,12.46,26.58,18.13,40.91,2.24,5.68,4.57,11.55,7,17.43,7.36,17.61,16.71,40.94,23.81,65.21,11.72,40,5.36,78.49-1.36,119.2-4.85,29.33-9.86,59.66-8,91.42,2.37,40.18,13.66,80.92,33.55,121.08,18.75,37.87,44.15,73,75.49,104.3,57.84,57.84,129,95.64,200.5,106.42a269.83,269.83,0,0,0,40.28,3.1,225.74,225.74,0,0,0,59.29-7.66c32.34-8.77,60.2-24.68,82.8-47.28L820.22,735h0l66.67-66.67A78.5,78.5,0,0,0,886.9,557.45ZM780.82,481.53a50.32,50.32,0,0,1,0,71.1l-4.79,4.8,0,0-66.67,66.67h0l-4.81,4.81a50.28,50.28,0,1,1-71.11-71.1l38.16-38.16,38.15-38.15A50.33,50.33,0,0,1,780.82,481.53ZM655.39,368a51.94,51.94,0,0,1,36.73,88.67l-41.77,41.77L612.2,536.62h0l-3.6,3.61a51.94,51.94,0,0,1-73.46-73.46l35.35-35.36h0l48.18-48.18A51.61,51.61,0,0,1,655.39,368ZM569.63,943.19c-37.56,37.55-93.2,53-156.68,43.39-65.17-9.84-130.43-44.63-183.77-98q-8-8-15.37-16.27a170.76,170.76,0,0,0,46.47,6.6,151.64,151.64,0,0,0,25.42-2.11c38.61-6.55,69.21-28.22,88.49-62.66A12.48,12.48,0,1,0,352.4,802c-15.68,28-39.53,44.92-70.88,50.24-36.89,6.26-75.64-5.26-99.85-21.42a350.45,350.45,0,0,1-22.31-38.59c-18.09-36.54-28.35-73.4-30.49-109.54-1.68-28.41,2.85-55.78,7.63-84.76,7-42.24,14.2-85.91.57-132.51-7.52-25.69-17.27-50-24.93-68.36-2.34-5.6-4.61-11.34-6.8-16.89-5.75-14.54-11.7-29.57-19.69-44.24-12.36-22.66-23.82-40.53-33-54.89-12.77-19.91-22-34.3-22.59-44.58-.36-6.35,2.12-15.47,23.26-35,6.79-6.29,13.15-10.33,19.43-12.35,36.16-11.67,67.32,29.3,79,47.45,32.15,49.81,59.73,91.39,89.81,132.41h0l.07.09c15.41,20.7,56.86,80.6,63.42,108.77a15,15,0,1,0,29.22-6.8c-2.78-11.94-9.63-26.93-18-42.24a144.06,144.06,0,0,0,37.87-4.15c29.22-7.09,56.58-22.75,79.12-45.29L707.84,104.72a51.94,51.94,0,0,1,73.46,73.46L597.45,362l-83.54,83.53a81.91,81.91,0,0,0,75.44,138,80.23,80.23,0,0,0,97.47,88.1A78.28,78.28,0,0,0,709.34,735h0a78,78,0,0,0,46.11,22.36ZM865.69,647.13l-31.32,31.31h0L799,713.81a48.47,48.47,0,0,1-68.46,0h0a48.47,48.47,0,0,1,0-68.46l66.71-66.71a48.42,48.42,0,0,1,68.44,68.5Z"/><path d="M273,168.1A15,15,0,1,0,294.27,147l-75-75.78a15,15,0,0,0-21.32,21.11Z"/><path d="M330.86,122.33A15,15,0,0,0,345.48,134a15.31,15.31,0,0,0,3.33-.37,15,15,0,0,0,11.31-17.95l-23.58-104a15,15,0,1,0-29.25,6.63Z"/><path d="M413.46,133.22A15,15,0,0,0,432.55,124l35-100.73a15,15,0,0,0-28.34-9.86l-35,100.73A15,15,0,0,0,413.46,133.22Z"/><path d="M468.54,167.07a15,15,0,0,0,21.09,2.26l83-66.94A15,15,0,1,0,553.82,79L470.8,146A15,15,0,0,0,468.54,167.07Z"/></g></g></svg>