<svg xmlns="http://www.w3.org/2000/svg" viewBox="0 0 100 100">
    <path
        style={{
        WebkitTextIndent: '0',
        textIndent: '0',
        WebkitTextTransform: 'none',
        textTransform: 'none',
        blockProgression: 'tb',
        }}
        d="M53.533 6.597c2.042 2.05 3.013 5.112 3.55 8.343.536 3.23.562 6.64 0 9.467a2.028 2.028 0 01-.966 1.343l-1.9 1.125c-.091 2.268-.183 4.979-1.307 6.593-.658.914-1.707 1.412-2.647 1.531-.94.119-1.83-.042-2.677-.344a7.946 7.946 0 01-3.145-2.062c-2.365 1.102-4.484 1.457-7.255 1.344v2.406c3.414 4.348 6.774 9.622 8.936 16.216 5.034-4.604 10.001-7.54 16.004-7.562 8.495.01 15.049 3.541 19.367 8.28C85.816 58.023 88 63.902 88 68.994c0 5.62-.511 10.328-3.051 14.435-2.54 4.107-6.941 7.324-14.105 10.405-.311.136-.658.19-.996.156-14.14-2.055-28.393-2.891-42.625-4-4.605-.07-8.17-1.817-8.936-5.717l-.934-6.655c-6.805-10.63-5.876-20.344-3.954-31.246 2.186-10.62 3.737-19.463 6.289-28.87.515-2.999 2.451-4.297 5.137-5.5 8.604-3.364 18.538-5.92 27.307-5.998.542-.04 1.06.254 1.4.593zm-2.398 3.5c-8.865.513-16.85 2.108-24.69 5.561-1.925.674-2.47 1.316-2.896 2.875-2.353 9.427-4.696 20.033-6.227 28.558-1.378 6.876-1.403 14.71.124 20.997.143-2.863.945-5.706 3.799-8.093-.527 10.113-.446 13.848.903 23.372.603 1.91 2.434 2.643 5.23 2.624 14.19.634 28.232 2.3 42.314 3.968 6.494-2.847 9.994-5.551 11.894-8.623 1.04-1.681 1.639-3.577 1.993-5.78-3.414-.412-6.983-.95-8.19-2.594-9.657 5.227-22.04 6-26.247.03 15.444 4.844 31.809-2.505 32.818-12.06a21.662 21.662 0 00-3.394-4.968c-3.648-4.003-9.04-6.967-16.471-6.967-6.954-.051-10.942 4.564-14.696 7.748 1.422 10.833-1.594 16.348-8.22 18.248 9.027-12.705 2.617-26.423-5.542-36.745-.28-.351-.436-.8-.436-1.25v-3.78c-.975-.577-1.73-1.204-2.273-2.156-.478-.837-.632-1.684-.685-2.594-2.58-.185-4.962-1.018-5.013-3.468 8.967 4 7.97-4 8.967-4 .997 0 .437 4.081.997 5.031.243.688.752 1.297 1.338 1.969-1.226-.304-2.102-.814-2.273.281.022 1.04.479 1.674 1.433 1.718 1.636-.01 3.002-.061 4.483-.28-.01-5.851-.145-8.01-1.992-11.718 2.759 0 3.807 4.302 3.954 11.249 1.025-.496 2.025-1.14 3.02-1.719-.006-5.71-.082-7.944-.996-12.53 2.498 4.18 2.89 7.07 2.958 11.374l2.989-1.75c-.2-5.369-1.087-8.232-1.962-12.623 3.056 3.833 3.76 7.666 3.892 11.499l1.183-.688c.307-2.103.349-4.744-.062-7.217-.396-2.382-1.201-4.343-2.024-5.5zM50.108 29.28l-2.024 1.156c.505.389 1.012.49 1.619.594-.033.004.286-.781.405-1.75zm33.626 37.057c-1.787 2.138-4.041 4.003-6.538 5.562 1.334.4 3.202.623 6.756.312.1-2.058.115-3.992-.218-5.874z"
        overflow="visible"
    ></path>
</svg>